<svg width="993" height="1398" viewBox="0 0 993 1398" fill="none" xmlns="http://www.w3.org/2000/svg">
<g clip-path="url(#clip0)">
<g opacity="0.3">
<path opacity="0.3" d="M271.439 1265.09C594.226 1265.09 855.897 1011.62 855.897 698.944C855.897 386.273 594.226 132.802 271.439 132.802C-51.3477 132.802 -313.018 386.273 -313.018 698.944C-313.018 1011.62 -51.3477 1265.09 271.439 1265.09Z" stroke="#A796FF"/>
<path opacity="0.3" d="M271.444 1121.14C512.155 1121.14 707.29 932.118 707.29 698.951C707.29 465.783 512.155 276.764 271.444 276.764C30.7333 276.764 -164.401 465.783 -164.401 698.951C-164.401 932.118 30.7333 1121.14 271.444 1121.14Z" stroke="#99989E" stroke-width="2"/>
<path opacity="0.3" d="M271.444 980.87C432.182 980.87 562.486 854.65 562.486 698.949C562.486 543.248 432.182 417.028 271.444 417.028C110.706 417.028 -19.5975 543.248 -19.5975 698.949C-19.5975 854.65 110.706 980.87 271.444 980.87Z" stroke="#C1C1C1" stroke-width="2"/>
<path opacity="0.3" d="M271.441 852.289C358.87 852.289 429.745 783.635 429.745 698.946C429.745 614.257 358.87 545.603 271.441 545.603C184.012 545.603 113.137 614.257 113.137 698.946C113.137 783.635 184.012 852.289 271.441 852.289Z" stroke="white" stroke-width="2"/>
<path opacity="0.3" d="M271.443 1396.59C669.205 1396.59 991.655 1084.24 991.655 698.948C991.655 313.65 669.205 1.30518 271.443 1.30518C-126.32 1.30518 -448.77 313.65 -448.77 698.948C-448.77 1084.24 -126.32 1396.59 271.443 1396.59Z" stroke="#E2DCFF"/>
</g>
</g>
<defs>
<clipPath id="clip0">
<rect width="1442.01" height="1396.82" fill="white" transform="translate(-449.561 0.538574)"/>
</clipPath>
</defs>
</svg>
